<svg width="40" height="40" viewBox="0 0 40 40" fill="none" xmlns="http://www.w3.org/2000/svg">
<path d="M21.5 1.875C21.5 0.835938 20.8313 0 20 0C19.1688 0 18.5 0.835938 18.5 1.875V3.75H16.5C15.6688 3.75 15 4.58594 15 5.625C15 6.66406 15.6688 7.5 16.5 7.5H18.5V11.125L11.4563 16.4062C10.55 17.0859 10 18.3047 10 19.625V40H16V32.5C16 29.7422 17.7938 27.5 20 27.5C22.2063 27.5 24 29.7422 24 32.5V40H30V19.625C30 18.3047 29.45 17.0859 28.5438 16.4062L21.5 11.125V7.5H23.5C24.3313 7.5 25 6.66406 25 5.625C25 4.58594 24.3313 3.75 23.5 3.75H21.5V1.875ZM1.55625 25.8047C0.59375 26.4688 0 27.7266 0 29.0938V36.25C0 38.3203 1.34375 40 3 40H8V21.375L1.55625 25.8047ZM37 40C38.6562 40 40 38.3203 40 36.25V29.0938C40 27.7266 39.4062 26.4688 38.4437 25.8047L32 21.375V40H37Z" fill="black"/>
</svg>
