<svg width="24" height="24" viewBox="0 0 24 24" fill="none" xmlns="http://www.w3.org/2000/svg">
<path d="M0 2C0 0.895431 0.671573 0 1.5 0H22.5C23.3284 0 24 0.895431 24 2C24 3.10457 23.3284 4 22.5 4H1.5C0.671573 4 0 3.10457 0 2Z" fill="white"/>
<path d="M0 22C0 20.8954 0.671573 20 1.5 20H22.5C23.3284 20 24 20.8954 24 22C24 23.1046 23.3284 24 22.5 24H1.5C0.671573 24 0 23.1046 0 22Z" fill="white"/>
<path d="M0 11.3333C0 10.2288 0.671573 9.33333 1.5 9.33333H22.5C23.3284 9.33333 24 10.2288 24 11.3333C24 12.4379 23.3284 13.3333 22.5 13.3333H1.5C0.671573 13.3333 0 12.4379 0 11.3333Z" fill="white"/>
</svg>
